<svg viewBox="0 0 59 54" xmlns="http://www.w3.org/2000/svg"><g id="Page-1"><g id="037---Floor-Plans" fill="rgb(0,0,0)" fill-rule="nonzero" transform="translate(0 -1)"><path id="Shape" d="m1.707 9.707c-.28599425-.28590792-.71603662-.37142191-1.08965456-.21667798s-.61725909.51928208-.61734544.92367798v6.586h3c.55228475 0 1 .4477153 1 1s-.44771525 1-1 1h-3v4h3c.55228475 0 1 .4477153 1 1s-.44771525 1-1 1h-3v4h3c.55228475 0 1 .4477153 1 1s-.44771525 1-1 1h-3v4h3c.55228475 0 1 .4477153 1 1s-.44771525 1-1 1h-3v4h3c.55228475 0 1 .4477153 1 1s-.44771525 1-1 1h-3v4h3c.55228475 0 1 .4477153 1 1s-.44771525 1-1 1h-3v4c0 .5522847.44771525 1 1 1h4v-3c0-.5522847.44771525-1 1-1s1 .4477153 1 1v3h4v-3c0-.5522847.4477153-1 1-1s1 .4477153 1 1v3h4v-3c0-.5522847.4477153-1 1-1s1 .4477153 1 1v3h4v-3c0-.5522847.4477153-1 1-1s1 .4477153 1 1v3h4v-3c0-.5522847.4477153-1 1-1s1 .4477153 1 1v3h4v-3c0-.5522847.4477153-1 1-1s1 .4477153 1 1v3h6.586c.4043959-.0000863.7689341-.2437275.923678-.6173454.1547439-.373618.0692299-.8036603-.216678-1.0896546zm6.293 36.293v-18.687l18.687 18.687z"/><path id="Shape" d="m8 11h19v18c0 .5522847.4477153 1 1 1s1-.4477153 1-1v-18h10c.3447904.0000008.6652611-.1776185.848-.47l5-8c.2927109-.46944204.149442-1.08728907-.32-1.37999999-.469442-.29271091-1.0872891-.14944204-1.38.31999999l-4.703 7.53h-30.445c-.55228475 0-1 .44771525-1 1 0 .5522847.44771525 1 1 1z"/><path id="Shape" d="m58 9h-8c-.5522847 0-1 .44771525-1 1 0 .5522847.4477153 1 1 1h7v20.045l-16.923-.029c-.0253466-.0067721-.0510538-.0121138-.077-.016-.027 0-.049.013-.076.015l-8.924-.015c-.5522847 0-1 .4477153-1 1s.4477153 1 1 1l8 .014v8.986c0 .5522847.4477153 1 1 1s1-.4477153 1-1v-8.983l16 .028v19.955h-8c-.5522847 0-1 .4477153-1 1s.4477153 1 1 1h9c.5522847 0 1-.4477153 1-1v-44c0-.55228475-.4477153-1-1-1z"/><path id="Shape" d="m38.707 15.293c-.3923789-.3789722-1.0160848-.3735524-1.4018186.0121814s-.3911536 1.0094397-.0121814 1.4018186l4.293 4.293-4.293 4.293c-.2599566.2510745-.3642126.6228779-.2726972.9725073.0915155.3496295.3645604.6226744.7141899.7141899.3496294.0915154.7214328-.0127406.9725073-.2726972l4.293-4.293 4.293 4.293c.3923789.3789722 1.0160848.3735524 1.4018186-.0121814s.3911536-1.0094397.0121814-1.4018186l-4.293-4.293 4.293-4.293c.3789722-.3923789.3735524-1.0160848-.0121814-1.4018186s-1.0094397-.3911536-1.4018186-.0121814l-4.293 4.293z"/></g></g></svg>