<svg id="Layer_2" enable-background="new 0 0 64 64" height="512" viewBox="0 0 64 64" width="512" xmlns="http://www.w3.org/2000/svg"><path d="m8 46v-34h-1c-1.654 0-3 1.346-3 3v31.537c.589-.342 1.272-.537 2-.537z"/><path d="m44 56h2v4h-2z"/><path d="m38 51.554v8.446h4v-5c0-.552.448-1 1-1h4c.552 0 1 .448 1 1v5h4v-8.446l-7-4.375z"/><path d="m10 47c0 .552-.448 1-1 1h-3c-1.103 0-2 .897-2 2s.897 2 2 2h30v-1c0-.345.178-.665.47-.848l8-5c.324-.202.735-.202 1.06 0l8 5c.292.183.47.503.47.848v1h6v-38h-50zm48.524 2.148-1.048 1.703-12.476-7.677-12.476 7.677-1.048-1.703 13-8c.321-.198.727-.198 1.048 0l4.476 2.755v-1.903h2v3.134zm-46.524-32.148c0-.552.448-1 1-1h36c.552 0 1 .448 1 1v23h-2v-5h-6v-2h6v-15h-22v3h-2v-3h-10v24h10v-8-9h2v8h12v2h-12v7h12v2h-25c-.552 0-1-.448-1-1z"/><path d="m10 5c0 .551.449 1 1 1h2v-2h-2c-.551 0-1 .449-1 1z"/><path d="m52.697 7 1.5-2-1.5-2h-38.697v4h2v2c0 .552.448 1 1 1h7v-2h-6v-1z"/></svg>